<svg xmlns="http://www.w3.org/2000/svg" viewBox="0 0 600 800">
  <defs>
    <linearGradient id="bg" x1="0" y1="0" x2="0.4" y2="1">
      <stop offset="0" stop-color="#cfc8bc"/><stop offset="1" stop-color="#7e766d"/>
    </linearGradient>
    <radialGradient id="vig" cx="0.5" cy="0.45" r="0.75">
      <stop offset="0.55" stop-color="#000" stop-opacity="0"/><stop offset="1" stop-color="#000" stop-opacity="0.45"/>
    </radialGradient>
    <filter id="b"><feGaussianBlur stdDeviation="28"/></filter>
    <filter id="s"><feGaussianBlur stdDeviation="1.2"/></filter>
  </defs>
  <rect width="600" height="800" fill="url(#bg)"/>
  <g filter="url(#b)" fill="#ffffff">
    <circle cx="110" cy="160" r="90" opacity="0.55"/><circle cx="500" cy="120" r="70" opacity="0.4"/>
    <circle cx="470" cy="420" r="110" opacity="0.3"/><circle cx="80" cy="520" r="80" opacity="0.35"/>
  </g>
  <g filter="url(#s)" transform="rotate(3 300 500)">
    <path d="M265 470Q360 395 455 470L490 820H235Z" fill="#231f1e"/>
    <path d="M344 430L360 500L376 430Z" fill="#f3efe8"/>
    <circle cx="360" cy="345" r="50" fill="#b9aca1"/>
    <path d="M310 335Q360 270 410 335Q400 300 360 296Q320 300 310 335Z" fill="#1d1614"/>
    <path d="M195 330Q240 270 290 320L360 820H50Z" fill="#ffffff" opacity="0.55"/>
    <path d="M160 480Q240 420 310 480L370 820H90Z" fill="#f2eee8"/>
    <circle cx="240" cy="360" r="45" fill="#b9aca1"/>
    <path d="M193 360Q200 300 240 305Q284 305 286 350Q260 320 193 360Z" fill="#3a2a22"/>
  </g>
  <rect width="600" height="800" fill="url(#vig)"/>
</svg>